<?xml version="1.0" encoding="iso-8859-1"?>
<!-- Uploaded to: SVG Repo, www.svgrepo.com, Generator: SVG Repo Mixer Tools -->
<svg fill="#000000" height="800px" width="800px" version="1.1" id="Layer_1" xmlns="http://www.w3.org/2000/svg" xmlns:xlink="http://www.w3.org/1999/xlink" 
	 viewBox="0 0 511.91 511.91" xml:space="preserve">
<g transform="translate(-1)">
	<g>
		<g>
			<polygon points="214.52,199.706 214.52,247.374 299.853,247.374 299.853,199.715 257.093,157.04 			"/>
			<path d="M175.378,187.639l13.534,13.525l62.046-62.216c1.604-1.604,3.772-2.509,6.033-2.509H257c0.017,0,0.034,0.009,0.051,0.009
				c0.009,0,0.017-0.009,0.026-0.009h0.008c0.06,0,0.111,0.034,0.162,0.034c0.674,0.026,1.331,0.094,1.971,0.265
				c0.29,0.06,0.555,0.205,0.845,0.299c0.145,0.051,0.29,0.085,0.427,0.154c1.075,0.401,2.099,0.939,2.918,1.758l62.054,62.216
				l13.517-13.517l-81.971-81.801L175.378,187.639z"/>
			<path d="M389.94,54.899c-73.199-73.199-192.307-73.199-265.506,0c-64.64,64.64-73.489,165.777-21.009,240.512L176.538,398.4
				l73.557,109.73c1.587,2.364,4.25,3.78,7.091,3.78s5.504-1.417,7.091-3.78l75.785-113.05l68.326-96.12
				C463.002,224.96,455.075,120.034,389.94,54.899z M257.187,332.71c-79.991,0-145.067-65.075-145.067-145.067
				S177.195,42.577,257.187,42.577s145.067,65.075,145.067,145.067S337.178,332.71,257.187,332.71z"/>
			<path d="M257.187,59.639c-70.579,0-128,57.421-128,128s57.421,128,128,128s128-57.421,128-128S327.766,59.639,257.187,59.639z
				 M359.587,187.639c0,2.27-0.896,4.437-2.5,6.042l-25.6,25.6c-1.596,1.596-3.763,2.492-6.033,2.492h-0.009
				c-2.27,0-4.437-0.896-6.033-2.5l-2.492-2.5v39.134c0,4.719-3.814,8.533-8.533,8.533h-102.4c-4.719,0-8.533-3.814-8.533-8.533
				v-39.134l-2.492,2.5c-1.596,1.604-3.763,2.5-6.033,2.5h-0.009c-2.27,0-4.437-0.896-6.033-2.492l-25.6-25.6
				c-3.337-3.337-3.337-8.73-0.009-12.066l93.687-93.867c1.596-1.604,3.763-2.5,6.033-2.509h0.009c2.253,0,4.42,0.896,6.025,2.492
				l94.046,93.867C358.691,183.202,359.587,185.37,359.587,187.639z"/>
		</g>
	</g>
</g>
</svg>